<svg xmlns="http://www.w3.org/2000/svg" viewBox="0 0 265.51 351.68"><title>Asset 1</title><g id="Layer_2" data-name="Layer 2"><g id="Layer_2-2" data-name="Layer 2"><path id="path4223-0-5-4" d="M236.36,142.59c-.29-.53-.52-4-.56-8.53-.09-8.8-.1-8.78,3.68-9.29a6.16,6.16,0,0,0,3-1.05c.46-.57.57-5.22.51-22.13,0-11.78-.2-22-.35-22.82a2.44,2.44,0,0,0-1-1.68c-.42-.16-4.24,1.7-9.46,4.59-4.82,2.67-9.41,5-10.21,5.1-1.91.33-2.26-.37-2.63-5.17-.23-3-.48-4-1.27-4.78-1.31-1.37-15.33-7.15-24.51-10.1a165.46,165.46,0,0,0-38.87-7.95c-21-1.63-48,4.67-73.47,17.13-4.53,2.22-5,2.71-6.14,6.18-.64,2-.71,2-2.45,2-2.37,0-37.33-15.43-39.23-17.28l-1.28-1.25,1.3-1.32a24.23,24.23,0,0,1,4.17-3c1.58-.9,25.3-14.79,52.73-30.86S141.08.87,142.12.48a3.92,3.92,0,0,1,3.26-.21c1.34.49,12.94,6.73,59.25,31.86,12.31,6.68,23,12.33,23.75,12.55,1.13.33,2,.11,5.35-1.3,3.7-1.57,4.27-1.69,7.71-1.58,6.08.19,7.71,2,8.4,9.42.23,2.53.44,4.64.45,4.69.11.49,2.72,2.31,6.05,4.23a21.54,21.54,0,0,1,4.77,3.39c.68,1,.65,1.12-.69,2.27a38.78,38.78,0,0,1-4.93,3.12c-5.83,3.18-5.28,0-5,29,.29,28.47,0,26.34,4.12,26.76s4,.38,4.12,9.57c.11,10.48.05,10.53-7.11,6.18-2-1.24-3.9-2-4.72-2s-2.59.84-4.72,2.25c-4.24,2.81-5.18,3.13-5.83,2Zm7.88-74.82c1.39-1.54,1.51-2.61.5-4.52a4,4,0,0,0-6.54-.83c-1.75,1.78-1.76,3.93,0,5.52a8.55,8.55,0,0,0,1.93,1.39C241.32,69.77,243,69.14,244.24,67.76Zm-3.9-17.7M82.18,116.8c-.5-.6-.66-3.94-.79-17.44-.2-19.52-.51-18.17,4.88-20.95a171.45,171.45,0,0,1,38.85-13.86c9.24-1.94,11.64-2.19,21.57-2.28,10.35-.09,12.53.11,23.64,2.23,14.85,2.83,40.11,11.89,42.32,15.19.72,1.07.83,2.84,1.1,17.26.25,13.46.19,16.32-.36,17.68s-.91,1.62-1.82,1.63a75.53,75.53,0,0,1-9.17-2.59c-14.68-4.77-31.75-8.46-44-9.52a136,136,0,0,0-31.7,1.66,241.83,241.83,0,0,0-33.12,8.75,94.53,94.53,0,0,1-9.7,3,2.43,2.43,0,0,1-1.66-.73Z" style="fill:#00b4ff"/><path d="M60.09,350.35c72.44,12.4,228.65-62.71,202.49-200.24H228.74V133.6C137.39,81.05,79,133.6,79,133.6c.75,42.4-25.72,64-25.72,64l2.5,15.93S89.67,214.85,94,247.86C97.94,278,69.64,291.1,69.64,291.1,86.43,339.37,60.09,350.35,60.09,350.35Z" style="fill:#303030"/><g id="Layer_1-2" data-name="Layer 1"><path id="path9" d="M50.45,236.27a21.55,21.55,0,0,0-10.52,6.65,17.86,17.86,0,0,0-5,11.8,19.31,19.31,0,0,0,2.44,9.13,16.2,16.2,0,0,0,7.81,7.51c1.17.28,1.7.91,1.68,1.78,0,.31-.45.6-1.51.82a25.16,25.16,0,0,1-13.56-9.34,25.45,25.45,0,0,1-5.09-15.8,32.89,32.89,0,0,1,6.27-17.5A30.37,30.37,0,0,1,47.54,220.1l-3.6-22a125.1,125.1,0,0,0-23.95,24A49.88,49.88,0,0,0,9.83,249.72a36.66,36.66,0,0,0,2.39,13.14,35.45,35.45,0,0,0,7.43,11.81c6.77,7.17,15.73,11.07,26.77,11.77a66.22,66.22,0,0,0,12.16-1.67Zm4.46-.48,8.21,47.63c9.62-3.53,14.62-11.7,15-24.38a28.38,28.38,0,0,0-3.54-11.57,22.1,22.1,0,0,0-8-8.37A23.28,23.28,0,0,0,54.91,235.79ZM44.18,171.38a30.1,30.1,0,0,0,7.1-6.2A75.2,75.2,0,0,0,58.94,155,64.17,64.17,0,0,0,65,143a35.08,35.08,0,0,0,2.44-11.45,20.4,20.4,0,0,0-.3-4.45,8.3,8.3,0,0,0-1.95-5.17,6.31,6.31,0,0,0-4.45-1.86q-5.55-.17-10.2,6.53a55.1,55.1,0,0,0-6,13.75,68.3,68.3,0,0,0-2.83,15.94A48.21,48.21,0,0,0,44.18,171.38Zm-4,3.45a127.41,127.41,0,0,1-3.71-30.61,89.1,89.1,0,0,1,2.6-18.59,55.6,55.6,0,0,1,5.82-14.92,28.84,28.84,0,0,1,8.19-9.55c2.71-1.89,4.66-2.88,5.71-2.85a3.05,3.05,0,0,1,2.07.92A24.73,24.73,0,0,1,63.19,102Q73.74,118,73.11,140a77.11,77.11,0,0,1-3.39,20.42,76.24,76.24,0,0,1-8.53,18.85,69.36,69.36,0,0,1-13.13,15.38L52.33,219c2.72-.23,4.58-.42,5.63-.39A27.69,27.69,0,0,1,70.65,222a29.88,29.88,0,0,1,9.7,8.3,36.88,36.88,0,0,1,6,11.64,42.9,42.9,0,0,1,1.82,13.55,36.16,36.16,0,0,1-6.34,19.71c-4,5.86-9.88,10.06-17.68,12.66.4,3,1.14,7.43,2.26,13.07s1.86,10.22,2.37,13.57a52.59,52.59,0,0,1,.57,9.69,23.85,23.85,0,0,1-13.86,21.46,28.32,28.32,0,0,1-13.36,2.74,29,29,0,0,1-17.6-6.2,19.35,19.35,0,0,1-7.56-15.69,22,22,0,0,1,2.34-8.13,16.45,16.45,0,0,1,5.25-6.13,13.15,13.15,0,0,1,7.61-2.48,13.17,13.17,0,0,1,6.79,2.18,15.45,15.45,0,0,1,5,5.57A15.62,15.62,0,0,1,45.56,325a12.85,12.85,0,0,1-13.48,12.66l-1.42,0c2.3,3.77,6.19,5.79,11.68,6a23.32,23.32,0,0,0,8.51-1.47,22.4,22.4,0,0,0,7.48-4.46,13.47,13.47,0,0,0,4.14-6.16c1.12-2.49,1.72-6,1.86-10.36a48,48,0,0,0-.6-8.89c-.47-2.91-1.22-6.81-2.24-11.65s-1.78-8.5-2.2-11a47.42,47.42,0,0,1-11.58,1.07A44.86,44.86,0,0,1,28.76,286,49.93,49.93,0,0,1,13.3,274,55.05,55.05,0,0,1,3.25,256.92,53.9,53.9,0,0,1,0,237.29a54.9,54.9,0,0,1,4.18-17.87,76.85,76.85,0,0,1,9.06-15.93A134.65,134.65,0,0,1,24.6,190C28.54,186.07,33.7,181,40.19,174.84Z" style="fill:#f8b449"/></g></g></g></svg>